# xmcd
#
# Track frame offsets:
#   150
#   17795
#   36578
#   58608
#   72704
#   84638
#   102709
#   122925
#   136034
#   154032
#   171286
#   185720
#   197258
#   214850
#   229417
#   244127
#   257562
#   276787
#   290499
#   306794
#   320269
#
# Disc length: 4442 seconds
#
# Revision: 0
# Processed by: cddbd v1.5.1PL0 Copyright (c) Steve Scherf et al.
# Submitted via: Media_Universe 3.0
#
DISCID=42115815
DTITLE=John Michael Montgomery - Leave A Mark and John Michael Montgomery
DYEAR=1900
DGENRE=Country
TTITLE0=Cover You In Kisses
TTITLE1=Hold Onto Me
TTITLE2=Little Cowboys Cry
TTITLE3=It Gets Me Every Time
TTITLE4=I Dont Want This Song To End
TTITLE5=Love Working On You
TTITLE6=I Couldnt Dream
TTITLE7=Youre The Ticket
TTITLE8=I Never Stopped Loving You
TTITLE9=This Ones Gonna Leave A Mark
TTITLE10=Coboy Love
TTITLE11=Sold (The Grundy County Auction Incident)
TTITLE12=I Can Love You Like That
TTITLE13=High School Heart
TTITLE14=Just Like A Rodeo
TTITLE15=Holding Onto Something
TTITLE16=Long As I Live
TTITLE17=No Mans Land
TTITLE18=Heaven Sent Me You
TTITLE19=Its What I Am
TTITLE20=Be My Baby Tonight
EXTD=
EXTT0=
EXTT1=
EXTT2=
EXTT3=
EXTT4=
EXTT5=
EXTT6=
EXTT7=
EXTT8=
EXTT9=
EXTT10=
EXTT11=
EXTT12=
EXTT13=
EXTT14=
EXTT15=
EXTT16=
EXTT17=
EXTT18=
EXTT19=
EXTT20=
PLAYORDER=
